<svg width="25" height="25" viewBox="0 0 25 25" fill="none" xmlns="http://www.w3.org/2000/svg">
<path d="M12.5002 25C13.2615 25.0003 13.9967 24.7226 14.5678 24.2191C15.1389 23.7156 15.5066 23.021 15.6017 22.2656C15.6283 22.0516 15.4502 21.875 15.2345 21.875H9.76579C9.55017 21.875 9.37204 22.0516 9.39861 22.2656C9.49377 23.021 9.86142 23.7156 10.4325 24.2191C11.0036 24.7226 11.7388 25.0003 12.5002 25ZM4.68767 7.8125C4.68767 5.7405 5.51077 3.75336 6.9759 2.28823C8.44102 0.8231 10.4282 0 12.5002 0C14.5722 0 16.5593 0.8231 18.0244 2.28823C19.4896 3.75336 20.3127 5.7405 20.3127 7.8125V12.4172C20.3127 12.4953 20.3361 12.5703 20.3783 12.6344L23.0392 16.6266C23.2764 16.9839 23.4123 17.3987 23.4325 17.8271C23.4527 18.2554 23.3565 18.6813 23.1541 19.0593C22.9517 19.4374 22.6507 19.7536 22.283 19.9742C21.9152 20.1949 21.4946 20.3118 21.0658 20.3125H3.93454C3.50482 20.3135 3.08292 20.1977 2.71401 19.9773C2.3451 19.7569 2.04309 19.4403 1.84033 19.0614C1.63757 18.6826 1.54169 18.2557 1.56296 17.8265C1.58424 17.3973 1.72187 16.982 1.96111 16.625L4.62204 12.6344C4.6645 12.5699 4.6873 12.4944 4.68767 12.4172V7.8125ZM12.5002 2.34375C11.0498 2.34375 9.65877 2.91992 8.63318 3.94551C7.60759 4.9711 7.03142 6.3621 7.03142 7.8125V12.4172C7.03142 12.9578 6.87204 13.4844 6.57204 13.9328L3.91111 17.9266C3.90794 17.9312 3.9063 17.9366 3.90642 17.9422L3.90798 17.9516C3.90798 17.9547 3.91111 17.9578 3.91423 17.9609L3.92361 17.9672L3.93454 17.9688H21.0658L21.0767 17.9672L21.0861 17.9609L21.0924 17.9516L21.0939 17.9406C21.094 17.9351 21.0924 17.9296 21.0892 17.925L18.4283 13.9344C18.1286 13.4857 17.9687 12.9583 17.9689 12.4187V7.8125C17.9689 6.3621 17.3927 4.9711 16.3672 3.94551C15.3416 2.91992 13.9506 2.34375 12.5002 2.34375Z" fill="#BBBBCC"/>
</svg>
