<svg width="66" height="84" viewBox="0 0 66 84" fill="none" xmlns="http://www.w3.org/2000/svg">
<path d="M19.6667 41.5714H23M46.3333 41.5714H33M46.3333 26.1429H43M33 26.1429H19.6667M19.6667 57H36.3333M3 49.2857V33.8571C3 19.3119 3 12.0373 6.90667 7.52057C10.81 3 17.0967 3 29.6667 3H36.3333C48.9033 3 55.19 3 59.0933 7.52057C61.2733 10.0393 62.2367 13.4143 62.66 18.4286M63 33.8571V49.2857C63 63.831 63 71.1056 59.0933 75.6223C55.19 80.1429 48.9033 80.1429 36.3333 80.1429H29.6667C17.0967 80.1429 10.81 80.1429 6.90667 75.6223C4.72667 73.1036 3.76333 69.7286 3.34 64.7143" stroke="#E2E2EE" stroke-width="6" stroke-linecap="round"/>
</svg>
