<svg width="24" height="24" viewBox="0 0 24 24" fill="none" xmlns="http://www.w3.org/2000/svg">
<path d="M8.33333 1H2.22222C1.89807 1 1.58719 1.12877 1.35798 1.35798C1.12877 1.58719 1 1.89807 1 2.22222V8.33333C1 8.65749 1.12877 8.96836 1.35798 9.19758C1.58719 9.42679 1.89807 9.55556 2.22222 9.55556H8.33333C8.65749 9.55556 8.96836 9.42679 9.19757 9.19758C9.42679 8.96836 9.55556 8.65749 9.55556 8.33333V2.22222C9.55556 1.89807 9.42679 1.58719 9.19757 1.35798C8.96836 1.12877 8.65749 1 8.33333 1ZM8.33333 14.4444H2.22222C1.89807 14.4444 1.58719 14.5732 1.35798 14.8024C1.12877 15.0316 1 15.3425 1 15.6667V21.7778C1 22.1019 1.12877 22.4128 1.35798 22.642C1.58719 22.8712 1.89807 23 2.22222 23H8.33333C8.65749 23 8.96836 22.8712 9.19757 22.642C9.42679 22.4128 9.55556 22.1019 9.55556 21.7778V15.6667C9.55556 15.3425 9.42679 15.0316 9.19757 14.8024C8.96836 14.5732 8.65749 14.4444 8.33333 14.4444ZM21.7778 1H15.6667C15.3425 1 15.0316 1.12877 14.8024 1.35798C14.5732 1.58719 14.4444 1.89807 14.4444 2.22222V8.33333C14.4444 8.65749 14.5732 8.96836 14.8024 9.19758C15.0316 9.42679 15.3425 9.55556 15.6667 9.55556H21.7778C22.1019 9.55556 22.4128 9.42679 22.642 9.19758C22.8712 8.96836 23 8.65749 23 8.33333V2.22222C23 1.89807 22.8712 1.58719 22.642 1.35798C22.4128 1.12877 22.1019 1 21.7778 1ZM21.7778 14.4444H15.6667C15.3425 14.4444 15.0316 14.5732 14.8024 14.8024C14.5732 15.0316 14.4444 15.3425 14.4444 15.6667V21.7778C14.4444 22.1019 14.5732 22.4128 14.8024 22.642C15.0316 22.8712 15.3425 23 15.6667 23H21.7778C22.1019 23 22.4128 22.8712 22.642 22.642C22.8712 22.4128 23 22.1019 23 21.7778V15.6667C23 15.3425 22.8712 15.0316 22.642 14.8024C22.4128 14.5732 22.1019 14.4444 21.7778 14.4444Z" stroke="#BBBBCC" stroke-width="2" stroke-linejoin="round"/>
</svg>
