<svg width="150" height="150" viewBox="0 0 150 150" fill="none" xmlns="http://www.w3.org/2000/svg">
<g clip-path="url(#clip0_135_247)">
<path d="M150 0H0V150H150V0Z" fill="#2575FC"/>
<path d="M125.25 39C125.25 34.8579 121.892 31.5 117.75 31.5C113.608 31.5 110.25 34.8579 110.25 39V110.25C110.25 114.392 113.608 117.75 117.75 117.75C121.892 117.75 125.25 114.392 125.25 110.25V39Z" fill="white"/>
<path d="M102.75 80.25C102.75 76.1079 99.3921 72.75 95.25 72.75C91.1079 72.75 87.75 76.1079 87.75 80.25V110.25C87.75 114.392 91.1079 117.75 95.25 117.75C99.3921 117.75 102.75 114.392 102.75 110.25V80.25Z" fill="white"/>
<path d="M69 72.75C64.8579 72.75 61.5 76.1079 61.5 80.25C61.5 84.3921 64.8579 87.75 69 87.75H95.25C99.3921 87.75 102.75 84.3921 102.75 80.25C102.75 76.1079 99.3921 72.75 95.25 72.75H69Z" fill="white"/>
<path d="M94.6486 79.0942C98.7166 79.8727 101.447 83.8417 99.9451 87.702C97.3104 94.4752 92.9146 100.477 87.1546 105.052C79.4229 111.193 69.7449 114.356 59.8791 113.968C50.0133 113.58 40.6138 109.666 33.3882 102.937C26.1627 96.2085 21.5903 87.1117 20.5016 77.298C19.413 67.4849 21.8803 57.6067 27.4554 49.4578C33.0306 41.309 41.3437 35.4302 50.8846 32.8893C60.4255 30.3484 70.5614 31.314 79.4506 35.6107C86.0739 38.8119 91.6779 43.704 95.7331 49.7353C98.0439 53.1728 96.2506 57.6436 92.4519 59.2949L90.7591 60.0309C86.9604 61.6822 82.6119 59.8273 79.8886 56.7062C77.7421 54.2455 75.1059 52.2213 72.12 50.7781C66.8608 48.2361 60.8644 47.6649 55.2199 49.168C49.5754 50.6713 44.6573 54.1492 41.359 58.9702C38.0607 63.7911 36.601 69.6351 37.245 75.441C37.8891 81.246 40.5942 86.6287 44.8689 90.609C49.1436 94.59 54.7044 96.9052 60.5411 97.1347C66.3778 97.3642 72.1032 95.493 76.6771 91.86C79.2744 89.7975 81.4029 87.2445 82.9584 84.3735C84.9309 80.7315 88.7671 77.9685 92.8351 78.747L94.6486 79.0942Z" fill="white"/>
</g>
<defs>
<clipPath id="clip0_135_247">
<rect width="150" height="150" rx="8" fill="white"/>
</clipPath>
</defs>
</svg>
