<svg width="74" height="76" viewBox="0 0 74 76" fill="none" xmlns="http://www.w3.org/2000/svg">
<path fill-rule="evenodd" clip-rule="evenodd" d="M50.391 27.6364C50.391 31.3012 48.9786 34.8159 46.4646 37.4073C43.9505 39.9987 40.5407 41.4545 36.9853 41.4545C33.4299 41.4545 30.0201 39.9987 27.506 37.4073C24.992 34.8159 23.5796 31.3012 23.5796 27.6364C23.5796 23.9715 24.992 20.4568 27.506 17.8654C30.0201 15.274 33.4299 13.8182 36.9853 13.8182C40.5407 13.8182 43.9505 15.274 46.4646 17.8654C48.9786 20.4568 50.391 23.9715 50.391 27.6364ZM43.6881 27.6364C43.6881 29.4688 42.9819 31.2261 41.7249 32.5218C40.4679 33.8175 38.763 34.5454 36.9853 34.5454C35.2076 34.5454 33.5027 33.8175 32.2457 32.5218C30.9886 31.2261 30.2824 29.4688 30.2824 27.6364C30.2824 25.804 30.9886 24.0466 32.2457 22.7509C33.5027 21.4552 35.2076 20.7273 36.9853 20.7273C38.763 20.7273 40.4679 21.4552 41.7249 22.7509C42.9819 24.0466 43.6881 25.804 43.6881 27.6364Z" fill="#BBBBCC"/>
<path fill-rule="evenodd" clip-rule="evenodd" d="M36.9853 0C16.6254 0 0.119629 17.0136 0.119629 38C0.119629 58.9864 16.6254 76 36.9853 76C57.3452 76 73.851 58.9864 73.851 38C73.851 17.0136 57.3452 0 36.9853 0ZM6.82248 38C6.82248 45.22 9.21204 51.8665 13.217 57.1451C16.0296 53.3378 19.6581 50.2524 23.819 48.1298C27.9799 46.0072 32.5606 44.9049 37.2031 44.9091C41.7856 44.9046 46.3087 45.9784 50.4276 48.0485C54.5466 50.1187 58.1528 53.1306 60.9715 56.8549C63.8753 52.9292 65.8305 48.3471 66.6752 43.4879C67.52 38.6286 67.23 33.6318 65.8293 28.911C64.4286 24.1902 61.9575 19.8811 58.6204 16.3401C55.2833 12.7992 51.1761 10.1282 46.6387 8.5483C42.1013 6.96836 37.2641 6.52485 32.5274 7.25445C27.7907 7.98406 23.2907 9.86581 19.3996 12.744C15.5085 15.6222 12.3383 19.4141 10.1512 23.806C7.96413 28.1978 6.82308 33.0633 6.82248 38ZM36.9853 69.0909C30.0611 69.1016 23.3459 66.6463 17.976 62.1404C20.1375 58.9509 23.0143 56.3468 26.3619 54.5496C29.7095 52.7525 33.4287 51.8154 37.2031 51.8182C40.9305 51.8151 44.6047 52.7287 47.9208 54.4831C51.2368 56.2375 54.0989 58.7821 56.2694 61.9055C50.8578 66.5577 44.032 69.1011 36.9853 69.0909Z" fill="#BBBBCC"/>
</svg>
