<svg width="25" height="27" viewBox="0 0 25 27" fill="none" xmlns="http://www.w3.org/2000/svg">
<path d="M10.4861 0.735465C11.0497 0.260496 11.763 0 12.5 0C13.237 0 13.9503 0.260496 14.5139 0.735465L23.8889 8.64102C24.5931 9.23546 25 10.1091 25 11.0299V23.9605C25 24.6051 24.7439 25.2233 24.2881 25.6791C23.8323 26.1349 23.2141 26.391 22.5694 26.391H17.7083C17.0637 26.391 16.4455 26.1349 15.9897 25.6791C15.5339 25.2233 15.2778 24.6051 15.2778 23.9605V17.0063C15.2778 16.9142 15.2412 16.8259 15.1761 16.7608C15.111 16.6957 15.0226 16.6591 14.9306 16.6591H10.0694C9.97736 16.6591 9.88904 16.6957 9.82392 16.7608C9.7588 16.8259 9.72222 16.9142 9.72222 17.0063V23.9605C9.72222 24.6051 9.46615 25.2233 9.01033 25.6791C8.55451 26.1349 7.93629 26.391 7.29167 26.391H2.43056C2.11137 26.391 1.79531 26.3282 1.50042 26.206C1.20553 26.0839 0.937591 25.9048 0.711893 25.6791C0.486195 25.4534 0.307162 25.1855 0.185015 24.8906C0.0628683 24.5957 0 24.2796 0 23.9605V11.0299C0 10.1091 0.406944 9.23546 1.11111 8.64102L10.4861 0.735465ZM13.1708 2.32852C12.983 2.17044 12.7455 2.08376 12.5 2.08376C12.2545 2.08376 12.017 2.17044 11.8292 2.32852L2.45417 10.2327C2.33815 10.3303 2.24486 10.4522 2.18081 10.5896C2.11675 10.7271 2.08349 10.8769 2.08333 11.0285V23.9591C2.08333 24.1507 2.23889 24.3063 2.43056 24.3063H7.29167C7.38376 24.3063 7.47207 24.2697 7.53719 24.2046C7.60231 24.1395 7.63889 24.0512 7.63889 23.9591V17.0049C7.63889 15.6619 8.72778 14.5744 10.0694 14.5744H14.9306C16.2722 14.5744 17.3611 15.6619 17.3611 17.0049V23.9591C17.3611 24.1507 17.5167 24.3063 17.7083 24.3063H22.5694C22.6615 24.3063 22.7498 24.2697 22.815 24.2046C22.8801 24.1395 22.9167 24.0512 22.9167 23.9591V11.0285C22.9165 10.8769 22.8832 10.7271 22.8192 10.5896C22.7551 10.4522 22.6618 10.3303 22.5458 10.2327L13.1708 2.32852Z" fill="#BBBBCC"/>
</svg>
