<svg width="25" height="25" viewBox="0 0 25 25" fill="none" xmlns="http://www.w3.org/2000/svg">
<rect width="25" height="25" rx="8" fill="#E2E2EE"/>
<path d="M12.5 5C8.35775 5 5 8.35775 5 12.5C5 16.6422 8.35775 20 12.5 20C16.6422 20 20 16.6422 20 12.5C20 8.35775 16.6422 5 12.5 5Z" stroke="#FAFAFA" stroke-width="1.5" stroke-linecap="round" stroke-linejoin="round"/>
<path d="M6.70312 17.2595C6.70312 17.2595 8.37488 15.125 12.4999 15.125C16.6249 15.125 18.2974 17.2595 18.2974 17.2595M12.4999 12.5C13.0966 12.5 13.6689 12.2629 14.0909 11.841C14.5128 11.419 14.7499 10.8467 14.7499 10.25C14.7499 9.65326 14.5128 9.08097 14.0909 8.65901C13.6689 8.23705 13.0966 8 12.4999 8C11.9031 8 11.3308 8.23705 10.9089 8.65901C10.4869 9.08097 10.2499 9.65326 10.2499 10.25C10.2499 10.8467 10.4869 11.419 10.9089 11.841C11.3308 12.2629 11.9031 12.5 12.4999 12.5Z" stroke="#FAFAFA" stroke-width="1.5" stroke-linecap="round" stroke-linejoin="round"/>
</svg>
