<svg width="27" height="27" viewBox="0 0 27 27" fill="none" xmlns="http://www.w3.org/2000/svg">
<path d="M13.5 1C6.59625 1 1 6.59625 1 13.5C1 20.4037 6.59625 26 13.5 26C20.4037 26 26 20.4037 26 13.5C26 6.59625 20.4037 1 13.5 1Z" stroke="#BBBBCC" stroke-width="1.5" stroke-linecap="round" stroke-linejoin="round"/>
<path d="M3.83984 21.4325C3.83984 21.4325 6.62609 17.875 13.5011 17.875C20.3761 17.875 23.1636 21.4325 23.1636 21.4325M13.5011 13.5C14.4957 13.5 15.4495 13.1049 16.1527 12.4017C16.856 11.6984 17.2511 10.7446 17.2511 9.75C17.2511 8.75544 16.856 7.80161 16.1527 7.09835C15.4495 6.39509 14.4957 6 13.5011 6C12.5065 6 11.5527 6.39509 10.8494 7.09835C10.1462 7.80161 9.75109 8.75544 9.75109 9.75C9.75109 10.7446 10.1462 11.6984 10.8494 12.4017C11.5527 13.1049 12.5065 13.5 13.5011 13.5Z" stroke="#BBBBCC" stroke-width="1.5" stroke-linecap="round" stroke-linejoin="round"/>
</svg>
