<svg width="25" height="25" viewBox="0 0 25 25" fill="none" xmlns="http://www.w3.org/2000/svg">
<path d="M24.3423 3.89547L12.804 0.0493497C12.6066 -0.0164499 12.3932 -0.0164499 12.1958 0.0493497L0.657446 3.89547C0.465988 3.9593 0.299465 4.08174 0.181469 4.24547C0.0634726 4.4092 -1.49545e-05 4.60591 2.64224e-09 4.80772V14.423C2.64224e-09 14.678 0.101304 14.9226 0.281626 15.1029C0.461948 15.2833 0.706517 15.3846 0.96153 15.3846C1.21654 15.3846 1.46111 15.2833 1.64143 15.1029C1.82176 14.9226 1.92306 14.678 1.92306 14.423V6.14185L5.96028 7.48679C4.88765 9.21971 4.54655 11.3075 5.0119 13.2917C5.47724 15.2759 6.71099 16.9943 8.44223 18.0696C6.27879 18.9182 4.40862 20.453 3.04084 22.5516C2.9697 22.6573 2.92029 22.7761 2.89548 22.9011C2.87067 23.0261 2.87095 23.1547 2.8963 23.2796C2.92165 23.4045 2.97157 23.5231 3.04316 23.6285C3.11475 23.7339 3.20658 23.8241 3.31332 23.8937C3.42005 23.9633 3.53955 24.011 3.66488 24.034C3.79021 24.0571 3.91887 24.0549 4.04337 24.0278C4.16788 24.0007 4.28575 23.949 4.39013 23.876C4.49451 23.8029 4.58332 23.7097 4.6514 23.602C6.46268 20.8232 9.32324 19.2307 12.4999 19.2307C15.6765 19.2307 18.5371 20.8232 20.3484 23.602C20.4894 23.8116 20.7073 23.9573 20.9548 24.0076C21.2024 24.0578 21.4598 24.0087 21.6714 23.8706C21.883 23.7326 22.0318 23.5169 22.0856 23.27C22.1394 23.0232 22.0939 22.7651 21.9589 22.5516C20.5912 20.453 18.7138 18.9182 16.5575 18.0696C18.2871 16.9943 19.5197 15.277 19.985 13.2943C20.4502 11.3115 20.1102 9.22521 19.0395 7.4928L24.3423 5.72598C24.5338 5.6622 24.7004 5.53976 24.8184 5.37603C24.9365 5.2123 25 5.01558 25 4.81373C25 4.61189 24.9365 4.41516 24.8184 4.25143C24.7004 4.0877 24.5338 3.96527 24.3423 3.90148V3.89547ZM18.2691 11.5384C18.2693 12.4505 18.0533 13.3497 17.6388 14.1621C17.2243 14.9745 16.623 15.6771 15.8844 16.2122C15.1458 16.7473 14.2908 17.0996 13.3896 17.2402C12.4884 17.3809 11.5668 17.3059 10.7002 17.0214C9.83364 16.7368 9.04688 16.2509 8.40448 15.6035C7.76208 14.956 7.28235 14.1654 7.00464 13.2967C6.72693 12.4279 6.65916 11.5057 6.80689 10.6056C6.95462 9.70559 7.31364 8.85341 7.8545 8.11899L12.1958 9.56129C12.3932 9.62709 12.6066 9.62709 12.804 9.56129L17.1453 8.11899C17.8758 9.10936 18.2697 10.3078 18.2691 11.5384ZM12.4999 7.64063L4.00237 4.80772L12.4999 1.97481L20.9974 4.80772L12.4999 7.64063Z" fill="#BBBBCC"/>
</svg>
